<?xml version="1.0" encoding="utf-8"?>
<!-- Generator: Adobe Illustrator 23.0.1, SVG Export Plug-In . SVG Version: 6.00 Build 0)  -->
<svg version="1.1" id="레이어_1" xmlns="http://www.w3.org/2000/svg" xmlns:xlink="http://www.w3.org/1999/xlink" x="0px"
	 y="0px" viewBox="0 0 21.82 16" style="enable-background:new 0 0 21.82 16;" xml:space="preserve">
<style type="text/css">
	.st0{fill:#999999;}
</style>
<title>bx-calendar-check</title>
<path class="st0" d="M13.33,2.67h-2V1.33H10v1.33H6V1.33H4.67v1.33h-2C2.3,2.67,2,2.97,2,3.33l0,0V14c0,0.37,0.3,0.67,0.67,0.67l0,0
	h10.67c0.37,0,0.67-0.3,0.67-0.67l0,0V3.33C14,2.97,13.7,2.67,13.33,2.67L13.33,2.67L13.33,2.67z M12.67,13.33H3.33v-8h9.33V13.33z"
	/>
<path class="st0" d="M6.86,11.14c0.12,0.12,0.29,0.2,0.47,0.2s0.35-0.07,0.47-0.2l3-3L9.86,7.19L7.33,9.72L6.47,8.86L5.53,9.8
	L6.86,11.14L6.86,11.14z"/>
</svg>
