<?xml version="1.0" encoding="utf-8"?>
<!-- Generator: Adobe Illustrator 23.0.1, SVG Export Plug-In . SVG Version: 6.00 Build 0)  -->
<svg version="1.1" id="레이어_1" xmlns="http://www.w3.org/2000/svg" xmlns:xlink="http://www.w3.org/1999/xlink" x="0px"
	 y="0px" viewBox="0 0 296 70" style="enable-background:new 0 0 296 70;" xml:space="preserve">
<style type="text/css">
	.st0{fill:#FFFFFF;}
</style>
<g>
	<path class="st0" d="M18.23,63H6.68V7.91h11.54V63z"/>
	<path class="st0" d="M41.94,7.91l23.94,36.34V7.91H77.5V63H65.88L42.25,27.21V63H30.7L30.62,7.91H41.94z"/>
	<path class="st0" d="M91.02,10.28c1.78-1.58,4.66-2.36,8.64-2.36h24.17v8.83h-20.3c-1.5,0-2.49,0.3-2.98,0.89
		c-0.49,0.59-0.74,1.49-0.74,2.67v10.54h22v8.91h-22V63H88.34V18.61C88.34,14.63,89.24,11.85,91.02,10.28z"/>
	<path class="st0" d="M177.21,63h-11.47l-3.87-11.7h-21L136.92,63h-11.54L144.9,7.91h13.33L177.21,63z M159.31,43.32l-8.06-25.41
		l-7.98,25.41H159.31z"/>
	<path class="st0" d="M214.63,9c2.53,0.72,4.54,1.78,6.04,3.18c1.55,1.4,2.63,3.14,3.25,5.23s0.93,4.51,0.93,7.24
		c0,4.6-0.84,8.16-2.52,10.69c-1.68,2.53-4.3,4.26-7.86,5.19c0.98,0.93,1.86,2.04,2.63,3.33c0.77,1.29,1.6,2.79,2.48,4.49L226.56,63
		h-11.7l-4.96-11c-1.14-2.38-2.39-4.61-3.76-6.7c-1.37-2.09-3.22-3.37-5.54-3.84h-5.73V63h-11.47V18.61c0-3.98,0.89-6.75,2.67-8.33
		c1.78-1.58,4.66-2.36,8.64-2.36h10.46C208.95,7.91,212.1,8.28,214.63,9z M198.59,16.75c-1.5,0-2.49,0.3-2.98,0.89
		c-0.49,0.59-0.74,1.49-0.74,2.67v12.32h9.14c3.3,0,5.66-0.58,7.05-1.74s2.09-3.24,2.09-6.24c0-2.94-0.68-5-2.05-6.16
		c-1.37-1.16-3.68-1.74-6.93-1.74H198.59z"/>
	<path class="st0" d="M246.55,7.91l16.5,35.95l16.42-35.95h11.39V63h-11.31V30.85l-12.78,27.19h-7.59l-12.78-27.12V63h-11.31V7.91
		H246.55z"/>
</g>
</svg>
